<?xml version="1.0" encoding="utf-8"?>
<!-- Generator: Adobe Illustrator 25.3.1, SVG Export Plug-In . SVG Version: 6.00 Build 0)  -->
<svg version="1.1" id="Layer_1" xmlns="http://www.w3.org/2000/svg" xmlns:xlink="http://www.w3.org/1999/xlink" x="0px" y="0px"
	 viewBox="0 0 288 288" style="enable-background:new 0 0 288 288;" xml:space="preserve">
<style type="text/css">
	.st0{fill:#CF4520;}
	.st1{fill:#FFFFFF;}
</style>
<g>
	<g>
		<path class="st0" d="M288,143.98C288,223.54,223.52,288,143.99,288C64.47,288,0,223.54,0,143.98C0,64.47,64.47,0,143.99,0
			C223.52,0,288,64.47,288,143.98z"/>
	</g>
	<path class="st1" d="M220.33,103.92c-3.47-38.82-36.06-69.24-75.81-69.24c-39.52,0-72.02,30.08-75.8,68.61
		c-19.69,14.67-30.63,37.52-30.62,60.96c-0.02,12.92,3.32,26.09,10.23,38.05c14.08,24.4,39.69,38.11,66.01,38.11
		c9.98,0,20.09-2.03,29.7-6.12c9.7,4.18,19.92,6.29,30.04,6.29c0.02,0,0.03,0,0.05,0c26.26,0,51.85-13.71,65.96-38.09
		c6.87-12.01,10.19-25.13,10.19-38.04C250.31,141.25,239.63,118.61,220.33,103.92z M144.53,57.84c22.18,0.04,41.1,13.63,49.02,32.91
		c-6.4-1.69-12.92-2.51-19.37-2.51c-26.28-0.02-51.87,13.65-65.99,38.06c-2.87,4.98-4.97,10.19-6.6,15.46
		c-6.3-8.72-10.06-19.4-10.08-30.97C91.56,81.56,115.26,57.9,144.53,57.84z M160.21,137.75c3.84,6.68,5.99,13.81,6.73,21.01
		c-6.81,3.21-14.38,5.08-22.42,5.08c-8.25-0.01-16.02-1.96-22.98-5.33c0.76-7.05,2.9-14.05,6.69-20.65
		c4.13-7.14,9.71-12.85,16.09-17.2C150.64,125.02,156.13,130.71,160.21,137.75z M68.39,190.74c-4.85-8.43-7.13-17.48-7.15-26.48
		c0.01-11.3,3.63-22.34,10.36-31.48c9.44,31.36,38.5,54.21,72.92,54.23c6.43,0,12.66-0.88,18.65-2.39
		c-4.31,10.36-11.89,19.46-22.39,25.51c-8.38,4.85-17.44,7.13-26.44,7.13C95.99,217.23,78.18,207.73,68.39,190.74z M220.03,190.92
		c-9.81,17-27.61,26.48-45.94,26.49c-1.67,0-3.34-0.16-5.01-0.32c13.83-14.33,21.38-33.44,21.37-52.92
		c0.02-12.92-3.3-26.06-10.19-38.02c-3.11-5.36-6.86-10.13-10.98-14.45c1.63-0.15,3.26-0.32,4.91-0.32c9,0.02,18.07,2.27,26.46,7.12
		c17.03,9.81,26.47,27.59,26.5,45.94C227.14,173.41,224.86,182.5,220.03,190.92z"/>
</g>
</svg>
